<svg xmlns="http://www.w3.org/2000/svg" xmlns:xlink="http://www.w3.org/1999/xlink" preserveAspectRatio="xMidYMid" width="14.491" height="27.499" viewBox="0 0 430 816">
  <defs>
    <style>
      .cls-1 {
        fill: #ebc854;
      }

      .cls-1, .cls-2 {
        fill-rule: evenodd;
      }

      .cls-2 {
        fill: #f7e9e8;
      }
    </style>
  </defs>
  <path d="M213.000,418.000 C223.683,418.000 290.000,538.000 290.000,538.000 C290.000,538.000 410.652,551.973 420.000,568.000 C429.348,584.027 326.000,673.000 326.000,673.000 C326.000,673.000 353.019,804.651 341.000,814.000 C328.981,823.349 212.000,755.000 212.000,755.000 C212.000,755.000 95.019,823.349 83.000,814.000 C70.981,804.651 99.000,672.000 99.000,672.000 C99.000,672.000 4.658,585.362 10.000,568.000 C15.342,550.638 140.000,538.000 140.000,538.000 C140.000,538.000 202.317,418.000 213.000,418.000 Z" class="cls-1"/>
  <path d="M213.000,1.000 C223.683,1.000 290.000,121.000 290.000,121.000 C290.000,121.000 410.652,134.973 420.000,151.000 C429.348,167.027 326.000,256.000 326.000,256.000 C326.000,256.000 353.019,387.651 341.000,397.000 C328.981,406.349 212.000,338.000 212.000,338.000 C212.000,338.000 95.019,406.349 83.000,397.000 C70.981,387.651 99.000,255.000 99.000,255.000 C99.000,255.000 4.658,168.362 10.000,151.000 C15.342,133.638 140.000,121.000 140.000,121.000 C140.000,121.000 202.317,1.000 213.000,1.000 Z" class="cls-2"/>
</svg>
